<svg width="25" height="23" viewBox="0 0 25 23" fill="none" xmlns="http://www.w3.org/2000/svg">
<path fill-rule="evenodd" clip-rule="evenodd" d="M0.250254 11.5001C0.250254 11.9062 0.411581 12.2957 0.698746 12.5829C0.98591 12.87 1.37539 13.0314 1.7815 13.0314H19.5226L12.9474 19.6035C12.805 19.7458 12.6921 19.9149 12.615 20.1009C12.538 20.2869 12.4983 20.4863 12.4983 20.6876C12.4983 20.8889 12.538 21.0883 12.615 21.2743C12.6921 21.4603 12.805 21.6294 12.9474 21.7717C13.0897 21.9141 13.2588 22.027 13.4448 22.1041C13.6308 22.1811 13.8302 22.2208 14.0315 22.2208C14.2328 22.2208 14.4322 22.1811 14.6182 22.1041C14.8042 22.027 14.9733 21.9141 15.1156 21.7717L24.3031 12.5842C24.4457 12.442 24.5589 12.273 24.6361 12.087C24.7133 11.9009 24.753 11.7015 24.753 11.5001C24.753 11.2987 24.7133 11.0993 24.6361 10.9132C24.5589 10.7272 24.4457 10.5582 24.3031 10.416L15.1156 1.22848C14.8281 0.940951 14.4381 0.779419 14.0315 0.779419C13.6249 0.779419 13.2349 0.940951 12.9474 1.22848C12.6599 1.51601 12.4983 1.90598 12.4983 2.3126C12.4983 2.71923 12.6599 3.1092 12.9474 3.39673L19.5226 9.96885H1.7815C1.37539 9.96885 0.98591 10.1302 0.698746 10.4173C0.411581 10.7045 0.250254 11.094 0.250254 11.5001Z" fill="white"/>
</svg>
