<svg width="25" height="23" viewBox="0 0 25 23" fill="none" xmlns="http://www.w3.org/2000/svg">
<path fill-rule="evenodd" clip-rule="evenodd" d="M24.7497 11.5001C24.7497 11.9062 24.5884 12.2957 24.3013 12.5829C24.0141 12.87 23.6246 13.0314 23.2185 13.0314H5.47743L12.0526 19.6035C12.195 19.7458 12.3079 19.9149 12.385 20.1009C12.462 20.2869 12.5017 20.4863 12.5017 20.6876C12.5017 20.8889 12.462 21.0883 12.385 21.2743C12.3079 21.4603 12.195 21.6294 12.0526 21.7717C11.9103 21.9141 11.7412 22.027 11.5552 22.1041C11.3692 22.1811 11.1698 22.2208 10.9685 22.2208C10.7672 22.2208 10.5678 22.1811 10.3818 22.1041C10.1958 22.027 10.0267 21.9141 9.88437 21.7717L0.696871 12.5842C0.554271 12.442 0.441134 12.273 0.363939 12.087C0.286744 11.9009 0.247009 11.7015 0.247009 11.5001C0.247009 11.2987 0.286744 11.0993 0.363939 10.9132C0.441134 10.7272 0.554271 10.5582 0.696871 10.416L9.88437 1.22848C10.1719 0.940951 10.5619 0.779419 10.9685 0.779419C11.3751 0.779419 11.7651 0.940951 12.0526 1.22848C12.3401 1.51601 12.5017 1.90598 12.5017 2.3126C12.5017 2.71923 12.3401 3.1092 12.0526 3.39673L5.47743 9.96885H23.2185C23.6246 9.96885 24.0141 10.1302 24.3013 10.4173C24.5884 10.7045 24.7497 11.094 24.7497 11.5001Z" fill="white"/>
</svg>
